Coordinates
version=1
nRows=8
nColumns=24
inDegrees=yes

Units are S.I. units (second, meters, Newtons, ...)
If the header above contains a line with 'inDegrees', this indicates whether rotational values are in degrees (yes) or radians (no).

endheader
time	pelvis_tilt	pelvis_list	pelvis_rotation	pelvis_tx	pelvis_ty	pelvis_tz	hip_flexion_r	hip_adduction_r	hip_rotation_r	knee_angle_r	ankle_angle_r	subtalar_angle_r	mtp_angle_r	hip_flexion_l	hip_adduction_l	hip_rotation_l	knee_angle_l	ankle_angle_l	subtalar_angle_l	mtp_angle_l	lumbar_extension	lumbar_bending	lumbar_rotation
1.0	5.095900880838301	-0.6355644767105136	-0.06979728943718327	-0.18143411481366645	1.339077478170176	0.5039351636792624	-2.6032518743850743	1.5361271885991443	-3.049104291866853	-12.336807123674467	8.535756160291864	0.8906719400039395	-0.6945101152141439	18.86662088946904	-2.7896508036971186	-4.397997062556059	-57.86717086445632	0.4497033922947359	-0.14163101387652613	-1.0404647514932053	-15.472374323371284	2.14934653455869	1.862986317661897
1.017	4.519152544415022	0.03648142571280512	-0.09081906569766181	0.6414090538194698	0.3389398361959792	-0.1871746108456133	-3.6490845894510766	1.9931451986052926	-3.62212726572669	-10.841952855197345	8.934876340771611	-0.23578689570355352	-0.0700023288561537	17.889096849557507	-3.08833290314017	-5.155814077358261	-54.22075701861238	2.2449714378486094	0.3337171059034456	-0.2256597053068101	-16.52336285114581	2.0748616136413083	2.381755796515377
1.033	5.375478710833582	-0.47594396141811524	-0.43768505769784155	0.8423682218799944	1.4453376793181456	-0.6827157471923174	-6.016676645383443	1.798571872411551	-3.141813503020589	-9.942857320652827	9.320954182755287	-0.3792707614602734	0.43741123360249806	20.152880165993768	-2.8577097221885346	-4.924420647507374	-48.74487978284339	0.93007482921133	-0.4339823140172566	-0.613734026463523	-16.265515678790536	-0.09883326805649917	1.7974162383506742
1.05	5.146441623900109	-0.6321490007690588	-0.3113236906982894	0.03707564601706381	1.2300034700884175	-0.23059498178263915	-8.318368069382323	2.93439873262134	-4.019532376288153	-8.253510246707522	7.19050334785255	0.3711692426179001	-0.31152007829379935	20.311315081316415	-3.8323488932841445	-5.66122826922367	-43.305256748268214	1.4036770202088238	-0.07989922359070024	-0.020231347607228826	-16.554448068773677	1.0799225483904116	1.7256429515592873
1.067	4.892440715454065	-0.6139406705999376	-0.3502308554419637	0.5232930403296714	0.4996123979608038	0.20248112653059405	-7.96046427551009	3.0126611454020433	-2.7961045535902773	-7.992608813609085	10.242561458094317	-0.9386923040271873	0.17888073906114133	20.943504647903865	-4.456445341002736	-7.549209437755577	-38.26728090434632	1.0198443071080205	0.4442308238211994	0.06546093310823307	-16.256704747980788	1.9237666004526963	2.162662058812084
1.083	5.316754174696695	-1.4271624303253518	-1.2438054883622167	1.2000438331165264	0.9632138683193047	0.6923704804662644	-10.116275075680296	3.5963884884200255	-1.845365894998328	-7.389211554249647	10.2012052518085	0.5128878415343073	-0.17192065807542112	20.253241626104703	-4.538669186437862	-9.299065200798278	-31.239153299408493	0.03827610544050461	-0.6429416410840465	0.33665461664936563	-17.602295823789746	2.5478210234446745	2.5103055811903667
1.1	5.279067995100324	-2.0965854649617657	-1.6421468790582727	0.6632679072959023	0.45683333582716457	-0.2528159093094715	-11.39013649719035	4.517639601704904	-3.104813798970908	-7.062129897524551	10.041748122010162	-0.07373859121474846	-0.937394008053502	20.35284434671861	-4.814181883219645	-9.801702421791813	-26.81253777171667	-1.476580478885276	0.5971794115754708	0.8815201440124669	-16.204992293503345	2.2181703644430315	3.6466282737350975
1.117	4.239312200913784	-2.837508604624368	-1.064768370648505	0.059390701049222616	0.44373024065468014	0.09007988553483871	-11.561726606793574	4.339913634775868	-1.395623517370501	-7.013115972798937	10.128277718092843	0.14904823224875233	-0.024408400986920206	19.63797912103691	-6.743099632234674	-9.715993093892983	-20.69047685386074	-1.293250999754259	0.42746368471778146	0.2771483898228467	-16.097795414577412	2.841850236883517	3.176558183929613
